<?xml version="1.0" standalone="no"?>
<!DOCTYPE svg PUBLIC "-//W3C//DTD SVG 20010904//EN"
 "http://www.w3.org/TR/2001/REC-SVG-20010904/DTD/svg10.dtd">
<svg version="1.0" xmlns="http://www.w3.org/2000/svg"
 width="500.000000pt" height="500.000000pt" viewBox="0 0 500.000000 500.000000"
 preserveAspectRatio="xMidYMid meet">
<metadata>
Created by potrace 1.16, written by Peter Selinger 2001-2019
</metadata>
<g transform="translate(0.000000,500.000000) scale(0.100000,-0.100000)"
fill="#000000" stroke="none">
<path d="M1856 3829 c-292 -40 -545 -128 -707 -246 -141 -102 -242 -208 -399
-418 -117 -156 -160 -225 -165 -262 -2 -16 -16 -73 -31 -128 -20 -77 -28 -133
-33 -247 -3 -80 -10 -150 -15 -155 -5 -4 -6 65 -4 159 2 92 3 166 0 164 -2 -3
-12 -53 -23 -113 -19 -114 -27 -423 -10 -423 4 0 19 -28 31 -62 12 -35 39 -97
60 -138 55 -110 61 -151 9 -65 -23 39 -52 93 -65 120 -13 28 -24 45 -24 39 0
-38 58 -222 99 -314 172 -386 462 -614 924 -726 78 -18 177 -46 220 -60 222
-75 544 -18 819 144 128 76 247 171 388 312 89 89 148 157 173 200 36 64 37
66 37 171 0 125 -4 131 -88 137 -79 6 -126 -8 -130 -38 -2 -14 3 -27 12 -32
11 -6 16 -23 16 -53 0 -51 -16 -59 -51 -24 -19 19 -21 30 -17 109 4 120 16
133 116 129 l73 -4 20 44 c10 24 19 49 19 57 0 35 -204 58 -295 33 -55 -15
-119 -83 -133 -142 -15 -58 -15 -170 -1 -222 14 -51 65 -100 118 -115 l43 -11
-23 -27 c-13 -14 -30 -32 -36 -40 -7 -7 -13 -19 -13 -25 1 -7 23 12 49 42 47
53 49 53 87 45 l38 -10 -168 -149 c-205 -183 -273 -232 -401 -295 -207 -101
-370 -135 -605 -127 -217 8 -345 42 -540 145 -162 86 -353 259 -461 418 -106
158 -193 380 -219 559 -44 317 71 747 274 1015 257 342 661 554 1120 590 67 5
137 10 156 10 l35 1 -39 15 c-53 19 -155 25 -240 13z"/>
<path d="M1436 3790 c-256 -96 -508 -289 -686 -530 -63 -85 -135 -221 -127
-243 2 -6 30 33 63 86 117 194 139 224 253 337 162 162 362 292 552 359 30 11
47 20 39 20 -8 0 -50 -13 -94 -29z"/>
<path d="M1965 3088 c-22 -5 -61 -7 -87 -4 -50 5 -58 -2 -58 -50 0 -15 6 -24
16 -24 18 0 18 2 -35 -135 -30 -77 -43 -100 -57 -100 -11 0 -22 -6 -26 -15
-10 -24 -9 -68 2 -72 7 -2 6 -16 -4 -40 l-16 -36 38 -6 c20 -3 62 -8 93 -11
l55 -6 10 48 9 48 46 3 c45 3 46 3 57 -37 15 -48 45 -61 141 -61 70 0 111 17
111 46 0 9 -21 72 -46 142 -25 70 -57 163 -71 207 -13 44 -34 88 -45 98 -22
19 -69 21 -133 5z"/>
<path d="M3190 3087 c-24 -12 -25 -17 -23 -95 1 -45 -2 -82 -5 -82 -4 0 -22
25 -40 55 -18 30 -45 69 -59 86 l-27 32 -70 -8 c-39 -4 -81 -8 -92 -8 -28 1
-32 -27 -41 -274 l-6 -193 94 0 94 0 -3 117 c-4 135 -12 136 87 -8 70 -102 79
-110 148 -116 100 -8 98 -12 98 241 0 203 -1 217 -20 236 -26 26 -101 35 -135
17z"/>
<path d="M1393 3083 l-153 -4 0 -39 c0 -22 4 -40 9 -40 6 0 11 -73 13 -170 l3
-170 28 -27 c27 -28 29 -28 177 -31 148 -3 150 -3 175 22 27 27 34 81 15 117
-9 17 -22 19 -100 19 -50 0 -90 4 -90 9 0 5 28 9 62 10 68 1 88 14 88 59 0 52
-15 62 -90 62 -56 0 -70 3 -70 15 0 12 17 15 89 15 85 0 91 1 110 26 23 29 28
83 11 115 -9 16 -20 19 -68 17 -31 -1 -126 -4 -209 -5z"/>
<path d="M800 3040 c0 -22 5 -40 10 -40 6 0 10 -67 10 -180 0 -167 1 -181 20
-200 11 -11 34 -20 53 -21 17 0 83 -2 146 -4 l113 -4 29 29 c22 22 29 38 29
67 0 68 -15 78 -115 78 l-88 0 7 95 c3 52 9 123 12 158 l7 62 -117 0 -116 0 0
-40z"/>
<path d="M2380 3074 c-86 -10 -80 0 -80 -134 0 -100 -3 -120 -15 -120 -11 0
-15 -11 -15 -40 0 -29 4 -40 15 -40 12 0 15 -15 15 -76 l0 -76 78 7 c139 11
135 9 130 66 -6 59 -2 56 37 -24 l30 -62 57 1 c116 2 139 31 96 118 l-21 45
31 29 c37 35 46 64 40 141 -3 44 -11 68 -31 94 -43 57 -85 71 -217 73 -63 1
-131 0 -150 -2z"/>
<path d="M2455 2149 c-31 -19 -32 -24 -28 -112 l4 -82 -55 84 c-30 47 -63 89
-72 94 -10 5 -45 6 -83 2 -36 -4 -75 -8 -86 -10 -26 -2 -31 -37 -41 -277 l-7
-188 86 0 c48 0 90 0 95 0 4 0 6 52 4 115 -2 63 -2 115 1 115 2 0 38 -48 78
-106 79 -115 104 -134 179 -134 27 0 47 7 60 20 19 19 20 33 20 224 0 198 -1
206 -22 231 -27 29 -101 43 -133 24z"/>
<path d="M4720 2146 l-35 -11 0 -89 c0 -98 -3 -102 -61 -92 l-34 7 0 92 0 92
-94 -3 -93 -3 -7 -67 c-3 -37 -6 -84 -6 -104 0 -31 -4 -38 -20 -38 -17 0 -20
-7 -20 -40 0 -33 3 -40 20 -40 17 0 20 -7 20 -42 0 -64 17 -115 47 -138 32
-25 118 -28 151 -5 20 15 21 21 15 91 l-6 75 44 -3 44 -3 3 -82 3 -83 68 0
c38 0 83 3 100 6 l31 7 0 192 c0 202 -7 244 -43 268 -32 20 -87 26 -127 13z"/>
<path d="M1753 2143 l-153 -4 0 -39 c0 -22 5 -40 10 -40 6 0 10 -54 10 -142 0
-247 4 -252 209 -256 137 -3 148 -2 174 18 21 17 27 30 27 61 0 73 -9 79 -110
79 -50 0 -90 4 -90 8 0 5 27 9 60 9 71 1 90 13 90 58 0 61 -5 65 -87 65 -55 0
-74 3 -71 13 3 8 36 14 97 17 108 6 121 16 121 90 0 60 -12 70 -79 68 -31 -1
-125 -4 -208 -5z"/>
<path d="M4016 2135 c-22 -8 -53 -27 -70 -44 -25 -25 -30 -40 -34 -88 -4 -53
-1 -62 23 -91 30 -36 63 -52 143 -71 28 -7 52 -17 52 -22 0 -14 -29 -11 -98
11 -35 11 -74 20 -86 20 -38 0 -61 -37 -57 -91 2 -30 64 -79 120 -96 73 -21
191 -14 247 15 90 46 111 150 44 219 -22 22 -56 39 -120 59 -50 16 -86 32 -82
36 7 7 37 0 151 -33 9 -3 22 20 40 69 30 83 30 82 -53 107 -62 19 -168 19
-220 0z"/>
<path d="M3190 2100 c0 -22 4 -40 9 -40 6 0 11 -77 13 -180 4 -232 -8 -218
190 -225 168 -6 182 -1 199 74 18 79 -23 107 -146 99 l-57 -3 6 70 c3 39 8
109 12 158 l7 87 -117 0 -116 0 0 -40z"/>
<path d="M3647 1988 c-8 -199 2 -285 38 -315 29 -26 105 -32 149 -12 l25 12
-5 201 c-3 110 -7 216 -10 234 l-5 32 -93 0 -93 0 -6 -152z"/>
</g>
</svg>
