<?xml version="1.0" standalone="no"?>
<!DOCTYPE svg PUBLIC "-//W3C//DTD SVG 20010904//EN"
 "http://www.w3.org/TR/2001/REC-SVG-20010904/DTD/svg10.dtd">
<svg version="1.0" xmlns="http://www.w3.org/2000/svg"
 width="500.000000pt" height="500.000000pt" viewBox="0 0 500.000000 500.000000"
 preserveAspectRatio="xMidYMid meet">

<g transform="translate(0.000000,500.000000) scale(0.100000,-0.100000)"
fill="#000000" stroke="none">
<path d="M2310 4150 c-513 -72 -933 -334 -1204 -752 -321 -494 -353 -1110 -86
-1643 83 -165 173 -288 315 -430 186 -187 391 -314 637 -396 164 -55 288 -78
458 -85 281 -12 523 36 775 155 480 227 821 664 925 1186 11 55 23 165 26 245
16 374 -92 731 -313 1043 -78 110 -266 296 -383 380 -179 127 -415 228 -646
277 -113 24 -396 35 -504 20z m525 -50 c1018 -221 1579 -1316 1159 -2264 -211
-475 -653 -832 -1161 -937 -623 -128 -1261 115 -1644 626 -149 200 -257 454
-300 706 -28 163 -23 460 10 607 62 279 195 540 382 749 229 257 556 446 884
512 149 30 145 29 365 26 165 -2 225 -7 305 -25z"/>
<path d="M2305 3619 c-282 -56 -524 -200 -695 -416 -65 -81 -123 -178 -118
-195 2 -6 19 15 37 48 136 239 380 433 648 514 82 24 247 50 323 50 135 0 307
-39 455 -102 203 -88 416 -285 528 -488 25 -46 33 -30 9 17 -38 72 -123 184
-196 256 -139 138 -325 244 -513 294 -83 22 -124 26 -263 29 -91 1 -187 -2
-215 -7z"/>
<path d="M1460 2460 l0 -130 75 0 c68 0 75 2 75 19 0 17 -8 20 -52 23 l-53 3
-3 108 c-2 99 -4 107 -22 107 -19 0 -20 -7 -20 -130z"/>
<path d="M2400 2460 l0 -130 85 0 c78 0 85 2 85 20 0 16 -8 19 -62 22 -63 3
-63 3 -63 33 0 30 1 30 58 33 49 3 57 6 57 22 0 18 -7 20 -61 20 l-60 0 3 33
c3 32 3 32 66 35 54 3 62 6 62 22 0 18 -7 20 -85 20 l-85 0 0 -130z"/>
<path d="M3022 2463 l3 -128 33 -3 c26 -3 32 0 32 16 0 11 -7 22 -15 26 -12 4
-15 26 -15 111 0 99 -1 105 -20 105 -20 0 -20 -5 -18 -127z"/>
<path d="M3130 2570 c0 -13 7 -20 20 -20 13 0 20 7 20 20 0 13 -7 20 -20 20
-13 0 -20 -7 -20 -20z"/>
<path d="M3390 2460 c0 -121 1 -130 19 -130 16 0 19 10 23 61 5 69 26 96 59
78 16 -8 19 -22 19 -74 0 -58 2 -65 20 -65 18 0 20 7 20 73 0 60 -4 77 -19 91
-21 19 -45 23 -78 12 -22 -7 -23 -5 -23 38 0 39 -3 46 -20 46 -19 0 -20 -7
-20 -130z"/>
<path d="M1693 2512 c-60 -9 -85 -111 -38 -157 28 -29 89 -34 121 -11 26 20
11 31 -44 31 -36 0 -47 4 -50 18 -3 15 5 17 57 17 57 0 61 1 61 24 0 50 -50
87 -107 78z m53 -49 c17 -17 16 -18 -20 -21 -45 -4 -54 2 -36 23 16 20 35 19
56 -2z"/>
<path d="M1885 2513 c-11 -3 -28 -12 -37 -20 -17 -15 -17 -17 0 -29 14 -10 20
-10 35 4 13 12 22 13 34 6 33 -20 26 -34 -16 -34 -28 0 -48 -7 -61 -20 -24
-24 -25 -38 -4 -68 17 -24 61 -30 95 -12 13 7 19 7 19 0 0 -5 7 -10 15 -10 24
0 21 141 -2 162 -22 19 -52 27 -78 21z m55 -110 c-1 -33 -70 -52 -70 -19 0 8
6 17 13 19 19 8 57 8 57 0z"/>
<path d="M2096 2505 c-14 -8 -26 -10 -26 -4 0 5 -9 9 -20 9 -19 0 -20 -7 -20
-90 0 -81 2 -90 19 -90 15 0 19 10 24 56 6 61 18 81 50 86 25 3 35 33 14 41
-8 3 -26 -1 -41 -8z"/>
<path d="M2267 2513 c-4 -3 -25 -6 -47 -5 l-40 2 0 -90 c0 -89 0 -90 25 -90
23 0 24 3 27 68 l3 67 30 0 30 0 3 -67 c3 -65 4 -68 27 -68 23 0 25 4 25 48 0
71 -16 117 -46 130 -29 14 -29 14 -37 5z"/>
<path d="M2695 2510 c-11 -4 -32 -5 -47 -3 l-28 6 0 -92 c0 -84 1 -91 20 -91
18 0 20 7 20 58 0 62 11 82 46 82 27 0 34 -17 34 -86 0 -47 2 -54 20 -54 18 0
20 7 20 73 0 58 -4 77 -17 89 -25 21 -45 26 -68 18z"/>
<path d="M2867 2507 c-31 -10 -49 -49 -38 -80 5 -14 5 -30 0 -40 -6 -11 -6
-24 0 -35 7 -13 7 -22 0 -29 -15 -15 -2 -51 23 -64 11 -6 35 -11 53 -11 102 0
107 93 6 110 -53 9 -68 30 -17 24 45 -5 76 24 76 73 0 19 5 35 11 35 6 0 9 6
6 13 -4 14 -83 17 -120 4z m58 -57 c0 -18 -6 -26 -23 -28 -24 -4 -38 18 -28
44 3 9 15 14 28 12 17 -2 23 -10 23 -28z m4 -139 c17 -11 6 -31 -19 -31 -29 0
-50 11 -50 26 0 16 47 19 69 5z"/>
<path d="M3265 2512 c-32 -7 -45 -22 -45 -54 0 -25 6 -31 47 -49 43 -18 45
-21 30 -36 -15 -15 -18 -15 -41 0 -14 9 -32 14 -41 11 -27 -11 21 -54 60 -54
91 0 101 93 13 115 -16 4 -28 13 -28 21 0 16 31 19 46 4 14 -14 44 -2 38 15
-7 17 -52 33 -79 27z"/>
<path d="M3130 2420 c0 -83 1 -90 20 -90 19 0 20 7 20 90 0 83 -1 90 -20 90
-19 0 -20 -7 -20 -90z"/>
<path d="M1450 2078 c0 -48 127 -250 219 -350 133 -144 347 -271 546 -325 91
-24 117 -27 280 -27 205 -1 285 14 447 84 246 106 456 305 577 548 18 35 30
69 28 75 -2 7 -23 -26 -47 -73 -270 -539 -898 -769 -1449 -531 -236 101 -448
305 -557 536 -36 75 -44 86 -44 63z"/>
</g>
</svg>
